# File created by Blade
# Date/Time:  Wed Jan 21 17:47:32 2015
# Frame Rate: 120.000 fps
#------------------------------------------------------
:FULLY-SPECIFIED
:DEGREES
356
root 18.367440 31.535266 -20.051301 -150.477711 70.132455 -166.923477
Spine 1.739065 -0.327154 -1.159704
Head 22.630738 -9.291617 6.044364
LeftShoulder -10.553264 -20.938037 -2.376879
LeftArm -22.943795 5.448899 -71.421354
LeftForeArm 2.434849 -0.000000 8.315698
LeftHand -0.645818 -0.000000 3.761113
LeftHandThumb1 -26.253704 0.000000 33.147579
RightShoulder -7.982734 -14.418929 3.824108
RightArm 14.399073 -0.793887 59.901126
RightForeArm -24.150950 -0.000000 31.375232
RightHand -1.365336 -0.000000 3.025083
RightHandThumb1 -24.326973 -0.000000 -32.862282
LeftUpLeg 16.440121 13.960722 8.575904
LeftLeg -0.684677 -0.000000 0.000000
LeftFoot -34.422765 17.785771 -20.469827
LeftToeBase 15.688903 -0.000000 -0.000000
RightUpLeg -57.121986 -7.550908 12.862029
RightLeg 27.933545 -0.000000 -0.000000
RightFoot -4.936742 -28.575065 7.817073
RightToeBase 23.701498 -0.000000 -0.000000
357
root 18.313691 31.556785 -20.057136 -150.576474 70.098800 -167.123347
Spine 1.771221 -0.241530 -0.995659
Head 22.738929 -9.255562 5.764013
LeftShoulder -10.581816 -20.912368 -2.457334
LeftArm -23.010719 5.185698 -71.411415
LeftForeArm 2.651020 -0.000000 8.201671
LeftHand -0.719643 -0.000000 3.828237
LeftHandThumb1 -26.253704 0.000000 33.147579
RightShoulder -7.898620 -14.277358 3.708932
RightArm 14.435758 -0.674929 59.918858
RightForeArm -24.248605 -0.000000 31.636147
RightHand -1.321915 -0.000000 2.877618
RightHandThumb1 -24.326973 -0.000000 -32.862282
LeftUpLeg 16.191835 13.840038 8.441304
LeftLeg -0.587311 -0.000000 0.000000
LeftFoot -34.468198 17.793507 -20.433673
LeftToeBase 15.732594 -0.000000 -0.000000
RightUpLeg -56.989682 -7.515450 12.725882
RightLeg 27.375412 -0.000000 -0.000000
RightFoot -4.599147 -28.722963 7.690213
RightToeBase 23.734878 -0.000000 -0.000000
358
root 18.257181 31.577680 -20.062534 -150.641547 70.050140 -167.314221
Spine 1.748001 -0.191249 -0.806126
Head 22.871663 -9.204069 5.429709
LeftShoulder -10.628978 -20.919562 -2.512472
LeftArm -23.163100 5.046630 -71.436856
LeftForeArm 2.731877 -0.000000 8.103696
LeftHand -0.766383 -0.000000 4.052478
LeftHandThumb1 -26.253704 0.000000 33.147579
RightShoulder -7.801871 -14.227291 3.613716
RightArm 14.568743 -0.521746 59.919543
RightForeArm -24.352274 0.000000 31.864770
RightHand -1.382413 -0.000000 2.855187
RightHandThumb1 -24.326973 -0.000000 -32.862282
LeftUpLeg 15.913152 13.723581 8.311283
LeftLeg -0.488799 -0.000000 0.000000
LeftFoot -34.551228 17.795972 -20.390472
LeftToeBase 15.845660 -0.000000 -0.000000
RightUpLeg -56.915010 -7.478147 12.591333
RightLeg 26.868373 -0.000000 -0.000000
RightFoot -4.304854 -28.868382 7.712663
RightToeBase 23.735174 -0.000000 -0.000000
359
root 18.199324 31.591697 -20.071284 -150.826354 70.039969 -167.558137
Spine 1.809334 -0.088446 -0.651600
Head 22.925428 -9.137995 5.103541
LeftShoulder -10.681417 -20.904184 -2.558417
LeftArm -23.233988 5.024486 -71.495652
LeftForeArm 2.486868 -0.000000 7.934634
LeftHand -0.532930 -0.000000 3.765517
LeftHandThumb1 -26.253704 0.000000 33.147579
RightShoulder -7.708179 -14.098552 3.477936
RightArm 14.641109 -0.491239 59.956185
RightForeArm -24.390567 0.000000 32.027005
RightHand -1.441051 -0.000000 2.739705
RightHandThumb1 -24.326973 -0.000000 -32.862282
LeftUpLeg 15.740634 13.633939 8.162238
LeftLeg -0.439391 -0.000000 0.000000
LeftFoot -34.629492 17.837400 -20.306919
LeftToeBase 15.953735 -0.000000 -0.000000
RightUpLeg -56.784433 -7.434572 12.412193
RightLeg 26.381453 -0.000000 -0.000000
RightFoot -3.995487 -29.027300 7.597650
RightToeBase 23.767092 -0.000000 -0.000000
